<?xml version="1.0" standalone="no"?>
<!DOCTYPE svg PUBLIC "-//W3C//DTD SVG 20010904//EN"
 "http://www.w3.org/TR/2001/REC-SVG-20010904/DTD/svg10.dtd">
<svg version="1.0" xmlns="http://www.w3.org/2000/svg"
 width="954.000000pt" height="976.000000pt" viewBox="0 0 954.000000 976.000000"
 preserveAspectRatio="xMidYMid meet">

<g transform="translate(0.000000,976.000000) scale(0.100000,-0.100000)"
fill="#135BEC" stroke="none">
<path d="M3740 7930 c-2491 -997 -3030 -1215 -3073 -1242 -73 -47 -89 -90 -65
-171 9 -30 23 -47 54 -66 54 -35 518 -223 2249 -913 347 -138 808 -322 1025
-410 217 -88 419 -169 449 -180 47 -19 60 -20 106 -11 44 10 866 333 1001 394
79 35 1399 560 1574 626 238 88 290 121 290 179 0 55 -102 124 -210 144 -96
17 -1153 119 -1615 155 -211 16 -333 27 -531 46 -142 14 -141 14 -226 -77
-132 -140 -294 -171 -464 -87 -177 86 -253 321 -165 509 53 114 147 185 283
215 66 14 137 3 213 -32 58 -27 145 -105 182 -164 15 -24 37 -46 48 -49 19 -5
154 -16 415 -36 69 -5 339 -27 600 -50 261 -23 554 -47 650 -55 208 -17 662
-79 739 -101 146 -42 260 -134 323 -261 58 -117 62 -158 55 -677 l-7 -459 -75
-71 c-115 -110 -117 -116 -121 -429 -4 -306 3 -376 46 -463 38 -78 84 -117
170 -146 130 -43 255 -18 354 73 66 60 90 114 106 237 14 102 8 396 -10 516
-14 92 -59 176 -120 222 -84 64 -80 34 -80 644 l0 540 38 24 c20 14 80 41 132
61 110 41 177 83 210 131 18 28 22 43 18 85 -8 76 -53 118 -188 170 -188 73
-2634 1050 -2676 1070 -23 10 -164 67 -315 127 -151 60 -330 133 -399 162
-144 61 -257 100 -279 99 -9 -1 -329 -126 -711 -279z"/>
<path d="M1920 5233 c0 -251 9 -305 70 -422 53 -101 115 -170 204 -226 94 -58
143 -79 693 -296 252 -99 482 -194 512 -212 64 -38 111 -93 148 -173 l28 -59
5 -1070 c6 -1210 0 -1113 90 -1300 106 -221 300 -383 535 -446 67 -18 109 -22
255 -23 173 -1 176 -1 270 32 219 76 369 195 479 377 94 155 143 428 122 676
-14 172 -15 1594 -1 1694 16 108 38 164 87 217 65 69 119 100 293 166 312 120
916 364 963 390 67 36 168 131 216 203 23 34 52 98 67 142 22 71 26 106 31
262 6 193 0 270 -21 278 -8 3 -108 -33 -222 -79 -115 -47 -465 -186 -779 -311
-313 -124 -680 -270 -815 -325 -135 -54 -341 -138 -458 -185 l-213 -86 -82 28
c-73 25 -175 64 -492 188 -49 19 -157 61 -240 92 -82 32 -334 130 -560 220
-225 89 -545 215 -710 280 -165 64 -335 132 -378 151 -43 19 -82 34 -87 34 -6
0 -10 -86 -10 -217z"/>
</g>
</svg>
